<?xml version="1.0" encoding="UTF-8" standalone="no"?>
<svg
   width="300px"
   height="300px"
   viewBox="0 -2.5 300 300"
   version="1.1"
   id="svg111"
   sodipodi:docname="adobe-photoshop-cs6-logo-svgrepo-com.svg"
   inkscape:version="1.1 (c68e22c387, 2021-05-23)"
   xmlns:inkscape="http://www.inkscape.org/namespaces/inkscape"
   xmlns:sodipodi="http://sodipodi.sourceforge.net/DTD/sodipodi-0.dtd"
   xmlns="http://www.w3.org/2000/svg"
   xmlns:svg="http://www.w3.org/2000/svg">
  <defs
     id="defs115" />
  <sodipodi:namedview
     id="namedview113"
     pagecolor="#ffffff"
     bordercolor="#666666"
     borderopacity="1.0"
     inkscape:pageshadow="2"
     inkscape:pageopacity="0.0"
     inkscape:pagecheckerboard="0"
     showgrid="false"
     inkscape:zoom="2.6966667"
     inkscape:cx="150"
     inkscape:cy="150"
     inkscape:window-width="1920"
     inkscape:window-height="1017"
     inkscape:window-x="-8"
     inkscape:window-y="-8"
     inkscape:window-maximized="1"
     inkscape:current-layer="svg111" />
  <linearGradient
     id="a"
     gradientUnits="userSpaceOnUse"
     x1="-973.025"
     y1="1430.582"
     x2="-858.025"
     y2="1187.581"
     gradientTransform="matrix(0.75590539,0,0,-0.76871747,790.62425,1136.8198)">
    <stop
       offset="0"
       stop-color="#a0cbff"
       id="stop63" />
    <stop
       offset=".394"
       stop-color="#a0cbfe"
       id="stop65" />
    <stop
       offset=".583"
       stop-color="#8ec2fc"
       id="stop67" />
    <stop
       offset=".784"
       stop-color="#83bcfb"
       id="stop69" />
    <stop
       offset="1"
       stop-color="#7fbafb"
       id="stop71" />
  </linearGradient>
  <path
     fill="url(#a)"
     d="M 0,48.94932 H 226.77165 V 275.72097 H 0 Z"
     id="path74"
     style="fill:url(#a);stroke-width:0.762285" />
  <linearGradient
     id="b"
     gradientUnits="userSpaceOnUse"
     x1="-932.205"
     y1="1388.221"
     x2="-867.205"
     y2="1172.219"
     gradientTransform="matrix(0.75590539,0,0,-0.76871747,790.62425,1136.8198)">
    <stop
       offset="0"
       stop-color="#090058"
       id="stop76" />
    <stop
       offset="1"
       stop-color="#070033"
       id="stop78" />
  </linearGradient>
  <path
     fill="url(#b)"
     d="M 18.03515,66.982664 H 208.73801 V 257.68763 H 18.03515 Z"
     id="path81"
     style="fill:url(#b);stroke-width:0.762285" />
  <g
     id="g109"
     transform="matrix(0.7559055,0,0,0.76871747,0,48.94932)">
    <linearGradient
       id="c"
       gradientUnits="userSpaceOnUse"
       x1="-1008.793"
       y1="1417.652"
       x2="-893.79401"
       y2="1174.6541"
       gradientTransform="matrix(1,0,0,-1,1045.93,1415.176)">
      <stop
         offset="0"
         stop-color="#a0cbff"
         id="stop83" />
      <stop
         offset=".394"
         stop-color="#a0cbfe"
         id="stop85" />
      <stop
         offset=".583"
         stop-color="#8ec2fc"
         id="stop87" />
      <stop
         offset=".784"
         stop-color="#83bcfb"
         id="stop89" />
      <stop
         offset="1"
         stop-color="#7fbafb"
         id="stop91" />
    </linearGradient>
    <path
       d="m 72.498,83.144 c 0,0 18.968,-0.499 34.582,-0.499 15.778,0 27.028,3.712 34.581,10.235 7.219,6.164 12.087,16.672 12.087,28.634 0,11.962 -3.694,21.75 -10.41,28.632 -8.729,8.881 -18.901,14.138 -36.258,14.865 -4.795,0.201 -9.233,0.249 -9.233,0.249 v 38.884 h -25.35 z m 25.348,60.573 c 2.754,0.268 4.48,0.139 8.562,0.09 13.598,-0.163 21.989,-8.432 21.989,-20.937 0,-11.234 -6.919,-20.458 -19.973,-20.936 -5.203,-0.19 -10.578,0 -10.578,0 z"
       fill="url(#c)"
       id="path94"
       style="fill:url(#c)" />
    <linearGradient
       id="d"
       gradientUnits="userSpaceOnUse"
       x1="-943.289"
       y1="1449.381"
       x2="-827.83398"
       y2="1205.42"
       gradientTransform="matrix(1,0,0,-1,1045.93,1415.176)">
      <stop
         offset="0"
         stop-color="#a0cbff"
         id="stop96" />
      <stop
         offset=".394"
         stop-color="#a0cbfe"
         id="stop98" />
      <stop
         offset=".583"
         stop-color="#8ec2fc"
         id="stop100" />
      <stop
         offset=".784"
         stop-color="#83bcfb"
         id="stop102" />
      <stop
         offset="1"
         stop-color="#7fbafb"
         id="stop104" />
    </linearGradient>
    <path
       d="m 163.422,177.055 c 5.109,3.135 17.165,7.83 25.383,7.83 8.396,0 11.863,-2.959 11.863,-7.572 0,-4.619 -2.738,-9.471 -13.145,-12.979 -18.439,-6.279 -25.56,-13.795 -25.375,-24.315 0,-16.991 14.238,-29.731 36.328,-29.731 10.406,0 18.719,3.402 24.191,6.17 v 20.392 c -4.02,-2.218 -15.611,-7.17 -23.277,-7.17 -6.759,0 -10.59,2.77 -10.59,7.382 0,4.248 3.471,6.464 14.424,10.344 16.975,5.908 24.096,14.584 24.276,27.879 0,16.805 -12.954,30.168 -38.7,29.357 -8.836,-0.278 -18.625,-3.771 -25.38,-7.459 z"
       fill="url(#d)"
       id="path107"
       style="fill:url(#d)" />
  </g>
</svg>
