<?xml version="1.0" encoding="UTF-8" standalone="no"?>
<svg
   width="60"
   height="60"
   version="1.1"
   id="svg2083"
   sodipodi:docname="github-ar21.svg"
   inkscape:version="1.1 (c68e22c387, 2021-05-23)"
   xmlns:inkscape="http://www.inkscape.org/namespaces/inkscape"
   xmlns:sodipodi="http://sodipodi.sourceforge.net/DTD/sodipodi-0.dtd"
   xmlns:xlink="http://www.w3.org/1999/xlink"
   xmlns="http://www.w3.org/2000/svg"
   xmlns:svg="http://www.w3.org/2000/svg">
  <sodipodi:namedview
     id="namedview2085"
     pagecolor="#ffffff"
     bordercolor="#666666"
     borderopacity="1.0"
     inkscape:pageshadow="2"
     inkscape:pageopacity="0.0"
     inkscape:pagecheckerboard="0"
     showgrid="false"
     inkscape:zoom="8.9083333"
     inkscape:cx="23.405051"
     inkscape:cy="28.793265"
     inkscape:window-width="1920"
     inkscape:window-height="1017"
     inkscape:window-x="-8"
     inkscape:window-y="-8"
     inkscape:window-maximized="1"
     inkscape:current-layer="svg2083" />
  <defs
     id="defs2043">
    <clipPath
       id="A">
      <path
         d="M 0,216 H 216 V 0 H 0 Z"
         id="path2032" />
    </clipPath>
    <clipPath
       id="B">
      <path
         d="m 121.724,55.66 c 0.343,1.114 0.4,2.832 -3.038,2.054 0,0 -9.395,-1.342 -9.843,-12.303 l -0.214,-21 h -2.258 l -0.213,21 c -0.448,10.96 -9.842,12.303 -9.842,12.303 -3.428,0.778 -3.383,-0.938 -3.04,-2.052 -3.37,5.738 -12.394,4.996 -12.394,4.996 -3.133,-1.117 -0.224,-3.13 -0.224,-3.13 4.92,-1.788 5.37,-7.158 5.37,-7.158 V 35.2 l 0.52,-11.728 c 1.117,-5.224 3.874,-8.312 6.578,-10.13 l 28.803,0.033 c 3.484,2.365 7.047,6.846 7.047,15.307 V 50.37 c 0,0 0.447,5.37 5.37,7.158 0,0 2.906,2.014 -0.225,3.13 0,0 -0.382,0.03 -1.017,0.032 -2.455,0 -8.7,-0.47 -11.378,-5.03 M 94.53,34.04 v 16.552 c 0,1.617 -0.285,2.977 -0.773,4.12 3.24,-2.526 3.457,-8.855 3.457,-8.855 v -20.66 c -3.225,2.282 -2.684,8.846 -2.684,8.846 M 117.8,45.86 c 0,0 0.217,6.33 3.456,8.855 -0.487,-1.143 -0.772,-2.503 -0.772,-4.12 V 34.042 c 0,0 0.54,-6.1 -2.684,-8.612 z"
         id="path2035" />
    </clipPath>
    <clipPath
       id="C">
      <path
         d="M 0,216 H 216 V 0 H 0 Z"
         id="path2038" />
    </clipPath>
    <path
       id="D"
       d="m 158.542,54.996 c 0,-9.73 -22.538,-17.617 -50.34,-17.617 -27.802,0 -50.34,7.887 -50.34,17.617 0,9.73 22.537,17.62 50.34,17.62 27.803,0 50.34,-7.9 50.34,-17.62" />
    <path
       id="E"
       d="m 75.282,93.676 c 0,-0.555 -0.65,-1.006 -1.454,-1.006 -0.804,0 -1.455,0.45 -1.455,1.006 0,0.556 0.65,1.008 1.455,1.008 0.805,0 1.454,-0.45 1.454,-1.008" />
  </defs>
  <g
     transform="matrix(0.3345041,0,0,-0.38066452,-5.9558455,74.228859)"
     id="g2079">
    <g
       clip-path="url(#C)"
       id="g2047">
      <use
         xlink:href="#D"
         fill="#a0dcf2"
         id="use2045"
         x="0"
         y="0"
         width="100%"
         height="100%" />
    </g>
    <g
       clip-path="url(#B)"
       id="g2051">
      <use
         xlink:href="#D"
         fill="#82bde7"
         id="use2049"
         x="0"
         y="0"
         width="100%"
         height="100%" />
    </g>
    <g
       clip-path="url(#A)"
       id="g2077">
      <path
         d="m 50.7,106.8 -1.453,-5.063 c 0,0 -0.378,-1.83 1.346,-2.154 1.8,0.035 1.653,1.72 1.527,2.266 l -1.42,4.95 z"
         fill="#a0dcf2"
         id="path2053" />
      <path
         d="m 197.042,128.027 0.133,0.658 c -14.768,2.953 -29.922,2.983 -39.1,2.602 1.506,5.426 1.96,11.67 1.96,18.633 0,9.986 -3.752,17.975 -9.843,24.054 1.065,3.435 2.487,11.066 -1.42,20.833 0,0 -6.9,2.188 -22.476,-8.243 -6.106,1.526 -12.604,2.28 -19.112,2.28 -7.16,0 -14.395,-0.912 -21.143,-2.763 -16.086,10.975 -23.186,8.727 -23.186,8.727 -4.636,-11.6 -1.77,-20.17 -0.9,-22.302 -5.448,-5.88 -8.774,-13.384 -8.774,-22.585 0,-6.947 0.792,-13.178 2.724,-18.594 -9.247,0.336 -23.85,0.207 -38.1,-2.64 l 0.132,-0.658 c 14.325,2.865 29.018,2.965 38.2,2.617 0.425,-1.12 0.9,-2.2 1.43,-3.26 -9.088,-0.293 -24.604,-1.45 -39.475,-5.646 l 0.182,-0.645 c 14.988,4.227 30.64,5.356 39.64,5.63 5.43,-10.12 16.135,-16.658 35.18,-18.7 -2.704,-1.816 -5.46,-4.904 -6.58,-10.13 -3.683,-1.76 -15.343,-6.062 -22.34,5.97 0,0 -3.916,7.16 -11.412,7.72 0,0 -7.27,0.1 -0.503,-4.53 0,0 4.867,-2.293 8.223,-10.9 0,0 4.38,-14.695 25.512,-9.98 v -15.18 c 0,0 -0.447,-5.37 -5.37,-7.158 0,0 -2.908,-2.014 0.224,-3.13 0,0 13.645,-1.12 13.645,10.065 v 16.552 c 0,0 -0.54,6.565 2.683,8.846 V 68.963 c 0,0 -0.222,-6.487 -3.578,-8.948 0,0 -2.237,-4.025 2.684,-2.908 0,0 9.394,1.342 9.842,12.303 l 0.214,27.513 h 2.257 L 108.81,69.41 c 0.447,-10.96 9.842,-12.303 9.842,-12.303 4.92,-1.117 2.683,2.908 2.683,2.908 -3.355,2.46 -3.578,8.948 -3.578,8.948 v 26.953 c 3.223,-2.5 2.684,-8.612 2.684,-8.612 V 70.752 c 0,-11.184 13.644,-10.065 13.644,-10.065 3.13,1.117 0.225,3.13 0.225,3.13 -4.922,1.8 -5.37,7.158 -5.37,7.158 v 21.697 c 0,8.46 -3.563,12.942 -7.047,15.307 20.3,2.014 30.056,8.572 34.548,18.762 8.896,-0.244 24.906,-1.328 40.22,-5.65 l 0.182,0.645 c -15.227,4.295 -31.13,5.406 -40.117,5.668 0.426,1.03 0.797,2.1 1.127,3.2 9.105,0.4 24.328,0.385 39.154,-2.58"
         fill="#292929"
         id="path2055" />
      <path
         d="m 140.178,150.4 c 4.375,-3.963 6.934,-8.75 6.934,-13.905 0,-24.075 -17.948,-24.728 -40.085,-24.728 -22.137,0 -40.087,3.323 -40.087,24.718 0,5.122 2.524,9.878 6.845,13.825 7.206,6.578 19.404,3.095 33.24,3.095 13.782,0 25.934,3.518 33.15,-3.015"
         fill="#f5cdb5"
         id="path2057" />
      <path
         d="m 93.697,135.258 c 0,-6.63 -3.734,-12.006 -8.34,-12.006 -4.606,0 -8.342,5.375 -8.342,12.006 0,6.631 3.736,12.004 8.342,12.004 4.606,0 8.34,-5.373 8.34,-12.004"
         fill="#ffffff"
         id="path2059" />
      <path
         d="m 91.02,135.107 c 0,-4.42 -2.5,-8.002 -5.56,-8.002 -3.06,0 -5.56,3.582 -5.56,8.002 0,4.42 2.488,8.006 5.56,8.006 3.072,0 5.56,-3.584 5.56,-8.006"
         fill="#b1645a"
         id="path2061" />
      <path
         d="m 138.443,135.258 c 0,-6.63 -3.734,-12.006 -8.342,-12.006 -4.608,0 -8.34,5.375 -8.34,12.006 0,6.631 3.735,12.004 8.34,12.004 4.605,0 8.342,-5.373 8.342,-12.004"
         fill="#ffffff"
         id="path2063" />
      <path
         d="m 135.766,135.107 c 0,-4.42 -2.5,-8.002 -5.56,-8.002 -3.06,0 -5.56,3.582 -5.56,8.002 0,4.42 2.5,8.006 5.56,8.006 3.06,0 5.56,-3.584 5.56,-8.006 m -26.536,-10.5 c 0,-1.152 -0.934,-2.086 -2.086,-2.086 -1.152,0 -2.086,0.934 -2.086,2.086 0,1.152 0.933,2.086 2.086,2.086 1.153,0 2.086,-0.934 2.086,-2.086 m -6.945,-5.275 a 0.67082673,0.67082673 0 1 0 1.265,0.447 c 0.536,-1.515 1.973,-2.533 3.577,-2.533 1.604,0 3.04,1.018 3.578,2.533 a 0.67035532,0.67035532 0 1 0 1.264,-0.447 5.15,5.15 0 0 0 -9.684,0"
         fill="#b1645a"
         id="path2065" />
      <g
         fill="#c5e6da"
         id="g2075">
        <path
           d="m 56.04,109.785 c 0,-0.557 -0.652,-1.006 -1.455,-1.006 -0.803,0 -1.454,0.45 -1.454,1.006 0,0.556 0.65,1.008 1.454,1.008 0.804,0 1.455,-0.45 1.455,-1.008 m 4.028,-2.235 c 0,-0.557 -0.652,-1.008 -1.455,-1.008 -0.803,0 -1.454,0.45 -1.454,1.008 0,0.558 0.65,1.006 1.454,1.006 0.804,0 1.455,-0.45 1.455,-1.006 m 2.462,-2.9 c 0,-0.555 -0.65,-1.006 -1.455,-1.006 -0.805,0 -1.453,0.45 -1.453,1.006 0,0.556 0.65,1.008 1.453,1.008 0.803,0 1.455,-0.45 1.455,-1.008 m 2.235,-3.357 c 0,-0.557 -0.65,-1.008 -1.453,-1.008 -0.803,0 -1.455,0.45 -1.455,1.008 0,0.558 0.65,1.008 1.455,1.008 0.805,0 1.453,-0.45 1.453,-1.008 m 2.462,-3.143 c 0,-0.555 -0.65,-1.006 -1.454,-1.006 -0.804,0 -1.455,0.45 -1.455,1.006 0,0.556 0.652,1.008 1.455,1.008 0.803,0 1.454,-0.45 1.454,-1.008 m 3.357,-2.683 c 0,-0.557 -0.65,-1.008 -1.455,-1.008 -0.805,0 -1.453,0.45 -1.453,1.008 0,0.558 0.65,1.006 1.453,1.006 0.803,0 1.455,-0.45 1.455,-1.006"
           id="path2067" />
        <use
           xlink:href="#E"
           id="use2069"
           x="0"
           y="0"
           width="100%"
           height="100%" />
        <use
           xlink:href="#E"
           x="4.6760001"
           id="use2071"
           y="0"
           width="100%"
           height="100%" />
        <path
           d="m 84.704,94.455 c 0,-0.557 -0.65,-1.008 -1.454,-1.008 -0.804,0 -1.455,0.45 -1.455,1.008 0,0.558 0.65,1.008 1.455,1.008 0.805,0 1.454,-0.45 1.454,-1.008"
           id="path2073" />
      </g>
    </g>
  </g>
</svg>
