<?xml version="1.0" standalone="no"?>
<!DOCTYPE svg PUBLIC "-//W3C//DTD SVG 1.0//EN" "http://www.w3.org/TR/2001/REC-SVG-20010904/DTD/svg10.dtd">
<svg xmlns="http://www.w3.org/2000/svg" xmlns:xlink="http://www.w3.org/1999/xlink" id="body_2" width="667" height="667">

<defs>
    <clipPath  id="1">

    <path id=""  clip-rule="evenodd" transform="matrix(1 0 0 1 0 0)"  d="M0 500L0 0L0 0L500 0L500 0L500 500L500 500L0 500z" />    </clipPath>
</defs>

<g transform="matrix(1.3333 0 0 1.3333 0 0)">
	<g clip-path="url(#1)" >
    <path id=""  transform="matrix(1 0 0 -1 0 500)"  d="M15.617385 500L15.617385 500L15.617385 500L15.617385 500L15.617385 500L484.38263 500L484.38263 500L437.50644 46.87619L437.50644 46.87619L265.62598 -3.0517578E-05L265.62598 -3.0517578E-05L265.62598 -3.0517578E-05L265.62598 -3.0517578E-05L234.37576 -3.0517578E-05L234.37576 -3.0517578E-05L62.493565 46.87619L62.493565 46.87619L15.617385 500z" stroke="#FFFFFF" stroke-width="2.288513" fill="#D99666" fill-rule="nonzero" />
    <path id=""  transform="matrix(1 0 0 -1 0 500)"  d="M250.00002 453.13928L250.00002 453.13928L250.00002 453.13928L250.00002 453.13928L250.00002 453.13928L421.8805 453.13928L421.8805 453.13928L390.63025 93.75232L390.63025 93.75232L250.00171 46.87616L250.00171 46.87616L250.00171 46.87616C 250.00002 46.87619 250.00002 453.13928 250.00002 453.13928z" stroke="#FFFFFF" stroke-width="2.288513" fill="#F4B459" fill-rule="nonzero" />
    <path id=""  transform="matrix(1 0 0 -1 0 500)"  d="M375.28583 359.58942L375.28583 359.58942L375.28583 359.58942L380.2067 406.2631L380.2067 406.2631L108.870285 406.2631L108.870285 406.2631L114.33868 359.58942L114.33868 359.58942L119.340225 296.7749L119.340225 296.7749L119.27672 296.7749L119.27672 296.7749L124.01222 250.024L124.01222 250.024L305.90778 250.024L305.90778 250.024L299.65845 175.64618L299.65845 175.64618L250.00002 159.95844L250.00002 159.95844L250.00002 160.44247L250.00002 160.44247L183.96727 177.89636L183.96727 177.89636L179.92001 218.88193L179.92001 218.88193L124.77773 218.88193L124.77773 218.88193L132.18393 143.59784L132.18393 143.59784L132.18393 140.52039L132.18393 140.52039L250.00002 109.378296L250.00002 109.378296L348.80026 140.52039L348.80026 140.52039L350.00348 140.52039L350.00348 140.52039L350.03433 140.9426L350.03433 140.9426L350.25235 140.97354L350.25235 140.97354L350.25235 143.44168L350.25235 143.44168L359.19128 250.024L359.19128 250.024L359.3938 250.024L359.3938 250.024L364.14474 296.7749L364.14474 296.7749L176.68465 296.7749L176.68465 296.7749L171.68481 359.58942L171.68481 359.58942L375.28583 359.58942z" stroke="#FFFFFF" stroke-width="2.288513" fill="#FFFFFF" fill-rule="evenodd" />
    <path id=""  transform="matrix(1 0 0 -1 0 500)"  d="M250.00002 406.2631L250.00002 406.2631L250.00002 406.2631L108.870285 406.2631L108.870285 406.2631L114.33868 359.58942L114.33868 359.58942L119.340225 296.7749L119.340225 296.7749L119.27672 296.7749L119.27672 296.7749L124.01222 250.024L124.01222 250.024L250.00002 250.024L250.00002 250.024L250.00002 296.7749L250.00002 296.7749L176.68465 296.7749L176.68465 296.7749L171.68481 359.58942L171.68481 359.58942L250.00002 359.58942L250.00002 359.58942L250.00002 406.2631z" stroke="#FFFFFF" stroke-width="2.288513" fill="#E5E5E5" fill-rule="evenodd" />
    <path id=""  transform="matrix(1 0 0 -1 0 500)"  d="M250.00002 160.44247L250.00002 160.44247L250.00002 160.44247L183.96727 177.89636L183.96727 177.89636L179.92001 218.88193L179.92001 218.88193L124.77773 218.88193L124.77773 218.88193L132.18393 143.59784L132.18393 143.59784L132.18393 140.52039L132.18393 140.52039L250.00002 109.378296L250.00002 109.378296L250.00002 159.95844L250.00002 159.95844L250.00002 160.44247z" stroke="#FFFFFF" stroke-width="2.288513" fill="#E5E5E5" fill-rule="evenodd" />
	</g>
</g>
</svg>