<?xml version="1.0" encoding="UTF-8" standalone="no"?>
<svg
   width="64"
   height="64"
   viewBox="0 0 32 32"
   preserveAspectRatio="xMidYMid"
   fill="#8cc84b"
   version="1.1"
   id="svg236"
   sodipodi:docname="nodejs-icon.svg"
   inkscape:version="1.1 (c68e22c387, 2021-05-23)"
   xmlns:inkscape="http://www.inkscape.org/namespaces/inkscape"
   xmlns:sodipodi="http://sodipodi.sourceforge.net/DTD/sodipodi-0.dtd"
   xmlns="http://www.w3.org/2000/svg"
   xmlns:svg="http://www.w3.org/2000/svg">
  <defs
     id="defs240" />
  <sodipodi:namedview
     id="namedview238"
     pagecolor="#ffffff"
     bordercolor="#666666"
     borderopacity="1.0"
     inkscape:pageshadow="2"
     inkscape:pageopacity="0.0"
     inkscape:pagecheckerboard="0"
     showgrid="false"
     inkscape:zoom="13"
     inkscape:cx="31.961538"
     inkscape:cy="32.038462"
     inkscape:window-width="1920"
     inkscape:window-height="1017"
     inkscape:window-x="-8"
     inkscape:window-y="-8"
     inkscape:window-maximized="1"
     inkscape:current-layer="svg236" />
  <path
     d="m 15.136083,0.40698203 c 0.829185,-0.42636819 1.886395,-0.42825062 2.694849,0 L 30.210654,6.7441499 c 0.774251,0.3953083 1.292492,1.1793363 1.285236,1.9897182 V 21.440205 c 0.0052,0.844266 -0.563845,1.645235 -1.380592,2.033014 l -12.313387,6.30799 a 2.6948491,2.4471464 0 0 1 -2.735272,-0.06871 l -3.695052,-1.938893 c -0.251865,-0.136475 -0.534824,-0.244715 -0.713099,-0.465899 0.157545,-0.192007 0.437395,-0.216478 0.66542,-0.301187 0.514095,-0.148711 0.984657,-0.376484 1.457292,-0.617434 0.119195,-0.0753 0.265339,-0.04706 0.379352,0.02071 l 3.1509,1.654647 c 0.224916,0.117651 0.452942,-0.03765 0.645727,-0.136475 L 29.047723,21.73198 c 0.149254,-0.06589 0.232172,-0.208948 0.219734,-0.35766 V 8.7903407 c 0.01658,-0.1694178 -0.09017,-0.3237762 -0.25912,-0.3924846 L 16.726044,2.1171609 A 0.42495697,0.38589616 0 0 0 16.244081,2.1162196 L 3.9794083,8.4100918 C 3.8135715,8.4788002 3.6995586,8.6312762 3.7202882,8.8006941 V 21.384674 c -0.014511,0.148711 0.072554,0.288951 0.2228433,0.352953 l 3.2773511,1.680061 c 0.6156693,0.301187 1.3712635,0.470605 2.0491217,0.24942 a 1.5547206,1.4118152 0 0 0 1.0064227,-1.326165 l 0.0031,-12.5086826 C 10.264617,9.646842 10.457402,9.4934247 10.65537,9.5122489 h 1.57545 c 0.207296,-0.00471 0.370023,0.1948305 0.342038,0.3811901 l -0.0031,12.587744 c 10e-4,1.118158 -0.504766,2.334202 -1.643858,2.882927 -1.4033945,0.658847 -3.1384627,0.520489 -4.5252735,-0.112945 L 2.8765932,23.48169 C 2.0474088,23.105206 1.4908189,22.292 1.4960013,21.448676 V 8.742339 A 2.5497418,2.3153769 0 0 1 2.8247691,6.7272081 Z m 3.569639,8.80784447 c 1.790002,-0.094121 3.706454,-0.06212 5.317144,0.73885 1.246886,0.6136685 1.938219,1.9012445 1.961021,3.1605835 -0.03524,0.169418 -0.230098,0.263539 -0.408373,0.251303 -0.51824,-9.41e-4 -1.038553,0.0066 -1.558866,-0.0028 -0.220771,0.0075 -0.348258,-0.176948 -0.376243,-0.353895 -0.149253,-0.602375 -0.510985,-1.198161 -1.134946,-1.488995 -0.957708,-0.43578 -2.068815,-0.414132 -3.113587,-0.40472 -0.76285,0.03765 -1.582706,0.09694 -2.228433,0.503547 -0.497511,0.308717 -0.646764,0.94121 -0.469526,1.432522 0.165837,0.360484 0.624998,0.476252 0.999168,0.58355 2.157952,0.512019 4.443391,0.470605 6.560921,1.136041 0.875826,0.274833 1.732995,0.809441 2.033574,1.642412 0.39179,1.116275 0.22077,2.450911 -0.652983,3.346943 -0.708952,0.737909 -1.741287,1.129452 -2.772585,1.357225 -1.371263,0.277657 -2.793314,0.284245 -4.185308,0.160006 -1.309074,-0.135535 -2.67101,-0.448016 -3.681578,-1.257457 -0.864425,-0.681436 -1.285236,-1.743121 -1.243776,-2.767158 0.01036,-0.173183 0.20004,-0.293657 0.383497,-0.279539 h 1.554721 c 0.209369,-0.01318 0.362768,0.150593 0.373133,0.329423 0.09639,0.564726 0.333747,1.176513 0.885154,1.505936 1.063429,0.623082 2.397379,0.579786 3.614207,0.597669 1.008496,-0.04047 2.140332,-0.05271 2.964334,-0.658847 0.435322,-0.345424 0.562809,-0.922386 0.445687,-1.419345 -0.127487,-0.41978 -0.621888,-0.61461 -1.036481,-0.752968 -2.129967,-0.611787 -4.441318,-0.389661 -6.550556,-1.082392 -0.856133,-0.274833 -1.68428,-0.794381 -2.012845,-1.593469 -0.45916,-1.129452 -0.248755,-2.529031 0.718281,-3.394945 0.932833,-0.8612069 2.300987,-1.1934541 3.596587,-1.3120465 z"
     id="path234"
     style="stroke-width:0.9877" />
</svg>
