<?xml version="1.0" encoding="UTF-8" standalone="no"?>
<svg
   width="105"
   height="100"
   version="1.1"
   id="svg1703"
   sodipodi:docname="sass-lang-ar21.svg"
   inkscape:version="1.1 (c68e22c387, 2021-05-23)"
   xmlns:inkscape="http://www.inkscape.org/namespaces/inkscape"
   xmlns:sodipodi="http://sodipodi.sourceforge.net/DTD/sodipodi-0.dtd"
   xmlns="http://www.w3.org/2000/svg"
   xmlns:svg="http://www.w3.org/2000/svg">
  <defs
     id="defs1707" />
  <sodipodi:namedview
     id="namedview1705"
     pagecolor="#ffffff"
     bordercolor="#666666"
     borderopacity="1.0"
     inkscape:pageshadow="2"
     inkscape:pageopacity="0.0"
     inkscape:pagecheckerboard="0"
     showgrid="false"
     inkscape:zoom="8.9083333"
     inkscape:cx="43.161833"
     inkscape:cy="55.285313"
     inkscape:window-width="1920"
     inkscape:window-height="1017"
     inkscape:window-x="-8"
     inkscape:window-y="-8"
     inkscape:window-maximized="1"
     inkscape:current-layer="svg1703" />
  <path
     d="m 90.395744,57.424545 c -3.671731,0.02664 -6.850261,1.146704 -9.517434,2.81528 -0.984996,-2.47624 -1.969992,-4.638289 -2.133459,-6.253614 -0.184427,-1.87626 -0.410766,-3.022962 -0.184427,-5.264891 0.22634,-2.241929 1.251853,-5.421099 1.251853,-5.68026 -0.02096,-0.234311 -0.223545,-1.381014 -2.338839,-1.40764 -2.115297,-0.02664 -3.939984,0.521874 -4.14397,1.242556 a 23.556068,29.927874 0 0 0 -0.881603,3.986834 c -0.368852,2.449614 -4.225006,11.129761 -6.419938,15.68817 -0.718139,-1.771531 -1.332887,-3.337154 -1.455837,-4.58681 -0.184427,-1.876261 -0.410766,-3.022964 -0.184427,-5.264891 0.226342,-2.241929 1.251856,-5.421099 1.251856,-5.680263 -0.02098,-0.23431 -0.223545,-1.381012 -2.338843,-1.407637 -2.115295,-0.02664 -3.939983,0.521872 -4.143969,1.242556 -0.203984,0.720684 -0.430323,2.371509 -0.880206,3.986834 -0.430326,1.597572 -5.557896,16.105312 -6.892179,19.880911 -0.676224,1.927739 -1.257441,3.466735 -1.704532,4.508709 -0.44709,1.041971 -0.02096,0.0781 -0.06147,0.182832 l -0.572834,1.381014 v 0.02664 c -0.287812,0.651455 -0.595185,1.27806 -0.740491,1.27806 -0.101986,0 -0.307374,-1.746682 0.0419,-4.143042 0.758657,-5.028805 2.604299,-12.87289 2.584741,-13.160453 0,-0.129583 0.349289,-1.50882 -1.187586,-2.215302 -1.49775,-0.702933 -2.030068,0.468622 -2.151619,0.468622 -0.121553,0 -0.223545,0.417143 -0.223545,0.417143 0,0 1.662615,-8.83458 -3.179932,-8.83458 -3.036021,0 -7.220507,4.196292 -9.291093,8.026919 l -10.460513,7.27073 -0.223543,-0.312413 C 18.345746,57.667731 7.4968233,52.037174 7.9481037,41.354731 8.1115711,37.472629 9.1776032,27.230409 28.788099,14.82614 44.848421,4.6637981 57.709251,7.4506756 59.944703,13.654585 63.124634,22.512241 53.073483,38.984999 36.377456,41.356506 30.020391,42.2689 26.675597,39.141205 25.834508,37.969651 24.9543,36.727095 24.828557,36.691594 24.501621,36.927679 c -0.533712,0.365666 -0.205381,1.459117 0,2.112347 0.491799,1.64195 2.542827,4.561959 6.03013,6.017525 3.055584,1.27806 10.520591,1.980993 19.546228,-2.449611 C 60.183618,37.575584 68.080351,23.7832 65.763866,12.236295 63.402668,0.48348047 48.061884,-3.3719964 33.559391,3.1691792 24.92496,7.0796832 15.572391,13.175314 8.8436858,21.17383 0.84495725,30.659866 -0.42785237,38.945946 0.10586247,42.386055 1.9724644,54.660744 15.284577,62.661035 20.616129,68.575606 l -0.740492,0.521875 C 17.209859,70.766059 7.0567193,77.514916 4.5124964,84.654295 1.6413388,92.730916 4.9637795,98.544309 7.1782718,99.325344 14.028532,101.74833 21.043659,97.397605 24.838338,90.229826 28.610662,83.063821 28.160778,73.76062 26.417125,69.514625 l -0.06147,-0.1562 2.091546,-1.562071 a 124.76614,158.51477 0 0 1 3.856152,-2.762028 c -0.656666,2.266779 -1.127507,4.952478 -1.374803,8.857658 -0.287815,4.58681 1.187583,10.526232 3.138016,12.87289 0.862046,1.017121 1.886162,1.041972 2.523265,1.041972 2.256409,0 3.283321,-2.371507 4.409427,-5.21164 1.394365,-3.466732 2.626658,-7.478417 2.626658,-7.478417 0,0 -1.536874,10.86705 2.665775,10.86705 1.536875,0 3.076541,-2.527718 3.772324,-3.830628 v 0.02664 c 0,0 0.0419,-0.0781 0.122961,-0.260937 0.163469,-0.312415 0.2459,-0.497023 0.2459,-0.497023 v -0.05325 c 0.61475,-1.354389 1.989553,-4.437705 4.040577,-9.590767 2.646216,-6.621053 5.189043,-14.905358 5.189043,-14.905358 0,0 0.2459,2.032468 1.005954,5.367846 0.45128,1.98099 1.436277,4.14304 2.193536,6.253612 l -0.984996,1.721828 0.02096,0.02664 c -0.4918,0.834289 -1.047868,1.72183 -1.620703,2.60582 -2.091543,3.177395 -4.593852,6.802112 -4.922183,7.84586 -0.391207,1.242557 -0.307376,2.137199 0.451281,2.866757 0.553275,0.521873 1.536874,0.624828 2.58474,0.521873 1.886162,-0.1562 3.213463,-0.756183 3.856156,-1.1183 a 13.356822,16.969779 0 0 0 3.322438,-2.215301 c 2.051025,-1.92774 3.302879,-4.664915 3.179929,-8.312707 -0.06148,-2.005843 -0.572835,-3.986833 -1.209938,-5.863095 l 0.553273,-1.041973 c 3.241408,-6.017525 5.742319,-12.63858 5.742319,-12.63858 0,0 0.245901,2.032468 1.005954,5.367846 0.391205,1.693429 1.169421,3.544839 1.866602,5.367847 -3.036022,3.152545 -4.943142,6.802112 -5.599806,9.198472 -1.209939,4.430603 -0.265461,6.436446 1.517313,6.922818 0.800571,0.207685 1.949033,-0.260937 2.808286,-0.727783 1.06603,-0.44377 2.358402,-1.19818 3.548779,-2.320032 2.051027,-1.927738 4.01962,-4.611662 3.917628,-8.236378 -0.06147,-1.668577 -0.410765,-3.308752 -0.880209,-4.872599 2.584743,-1.354386 5.928138,-2.137198 10.174102,-1.485743 9.127639,1.354387 10.932769,8.60027 10.583479,11.623233 -0.34929,3.022964 -2.25641,4.69154 -2.892124,5.21164 -0.635705,0.497022 -0.841085,0.67808 -0.779614,1.041972 0.08376,0.546727 0.368854,0.521875 0.922128,0.417145 0.75866,-0.1562 4.79923,-2.476238 4.96411,-8.05177 0.24589,-7.166003 -5.108024,-14.981688 -14.604507,-14.905358 z m -70.392966,30.14976 c -3.015068,4.196291 -7.261028,5.786765 -9.067551,4.430604 -1.9490341,-1.432493 -1.1875848,-7.609775 2.523264,-12.06523 2.256409,-2.710549 5.189042,-5.211639 7.11712,-6.74886 l 1.866604,-1.43249 c 0.122948,-0.1065 0.205379,-0.1562 0.205379,-0.1562 0.143904,-0.1065 0.307376,-0.234313 0.47224,-0.365669 1.374804,6.358344 0.06148,11.935649 -3.115659,16.339626 z M 42.052712,68.52413 c -1.047868,3.257274 -3.260968,11.623234 -4.593854,11.152836 -1.148464,-0.390517 -1.844248,-6.724007 -0.223545,-12.975845 0.820129,-3.152545 2.563783,-6.922817 3.590695,-8.36596 1.662615,-2.343106 3.46495,-3.127692 3.917626,-2.162047 0.533715,1.251431 -2.030067,10.320322 -2.686731,12.354566 z m 18.192383,11.049881 c -0.451283,0.284014 -0.862048,0.497024 -1.047869,0.337265 -0.143902,-0.1065 0.184425,-0.497021 0.184425,-0.497021 0,0 2.277365,-3.101069 3.17993,-4.533559 l 1.78417,-2.893382 v 0.312415 c 0,3.752521 -2.830641,6.253611 -4.102053,7.270732 z m 14.030249,-4.082686 c -0.32833,-0.312415 -0.287812,-1.27806 0.820131,-4.299249 0.430325,-1.19818 1.41532,-3.205796 3.115663,-5.106907 0.205381,0.781035 0.32833,1.53722 0.307372,2.241926 -0.02096,4.691541 -2.646214,6.436446 -4.247357,7.166005 z"
     fill="#cf649a"
     id="path1701"
     style="stroke-width:1.57482" />
</svg>
