<?xml version="1.0" encoding="UTF-8" standalone="no"?>
<svg
   version="1.1"
   id="Layer_1"
   x="0px"
   y="0px"
   viewBox="0 0 60 60"
   xml:space="preserve"
   sodipodi:docname="visual-studio-code.svg"
   width="60"
   height="60"
   inkscape:version="1.1 (c68e22c387, 2021-05-23)"
   xmlns:inkscape="http://www.inkscape.org/namespaces/inkscape"
   xmlns:sodipodi="http://sodipodi.sourceforge.net/DTD/sodipodi-0.dtd"
   xmlns="http://www.w3.org/2000/svg"
   xmlns:svg="http://www.w3.org/2000/svg"><sodipodi:namedview
     id="namedview2342"
     pagecolor="#ffffff"
     bordercolor="#666666"
     borderopacity="1.0"
     inkscape:pageshadow="2"
     inkscape:pageopacity="0.0"
     inkscape:pagecheckerboard="0"
     showgrid="false"
     inkscape:zoom="3.25"
     inkscape:cx="128.15385"
     inkscape:cy="127.53846"
     inkscape:window-width="1920"
     inkscape:window-height="1017"
     inkscape:window-x="-8"
     inkscape:window-y="-8"
     inkscape:window-maximized="1"
     inkscape:current-layer="Layer_1" /><style
     type="text/css"
     id="style2310">.st0{fill-rule:evenodd;clip-rule:evenodd;fill:#FFFFFF;filter:url(#Adobe_OpacityMaskFilter);} .st1{mask:url(#mask0_1_);} .st2{fill:#0065A9;} .st3{fill:#007ACC;} .st4{fill:#1F9CF0;} .st5{opacity:0.25;} .st6{fill-rule:evenodd;clip-rule:evenodd;fill:url(#SVGID_1_);}</style><defs
     id="defs2315"><filter
       id="Adobe_OpacityMaskFilter"
       filterUnits="userSpaceOnUse"
       x="-0.16"
       y="0.66000003"
       width="256.16"
       height="254.67999"><feColorMatrix
         type="matrix"
         values="1 0 0 0 0 0 1 0 0 0 0 0 1 0 0 0 0 0 1 0"
         id="feColorMatrix2312" /></filter></defs><mask
     maskUnits="userSpaceOnUse"
     x="-0.16"
     y="0.66"
     width="256.16"
     height="254.68"
     id="mask0_1_"><path
       class="st0"
       d="m 181.53,254.25 c 4.03,1.57 8.63,1.47 12.7,-0.49 l 52.71,-25.36 c 5.54,-2.66 9.06,-8.27 9.06,-14.42 V 42.02 c 0,-6.15 -3.52,-11.75 -9.06,-14.42 L 194.23,2.24 c -5.34,-2.57 -11.59,-1.94 -16.28,1.47 -0.67,0.49 -1.31,1.03 -1.91,1.63 L 75.15,97.39 31.2,64.02 C 27.11,60.91 21.39,61.17 17.59,64.63 L 3.49,77.45 C -1.16,81.68 -1.16,88.99 3.48,93.22 L 41.59,128 3.48,162.77 c -4.64,4.24 -4.64,11.55 0.01,15.78 l 14.1,12.82 c 3.8,3.46 9.52,3.71 13.61,0.61 l 43.95,-33.36 100.9,92.05 c 1.6,1.59 3.47,2.8 5.48,3.58 z M 192.04,69.89 115.48,128 192.04,186.12 V 69.89 Z"
       id="path2317" /></mask><g
     class="st1"
     mask="url(#mask0_1_)"
     id="g2339"
     transform="matrix(0.23422975,0,0,0.23559028,0.03718421,-0.15548959)"><path
       class="st2"
       d="M 246.94,27.64 194.19,2.24 C 188.09,-0.7 180.79,0.54 176,5.33 L 3.32,162.77 c -4.64,4.24 -4.64,11.55 0.01,15.78 l 14.1,12.82 c 3.8,3.46 9.53,3.71 13.62,0.61 L 239,34.23 c 6.98,-5.29 17,-0.32 17,8.44 v -0.61 c 0,-6.15 -3.52,-11.76 -9.06,-14.42 z"
       id="path2320" /><g
       id="g2324"><path
         class="st3"
         d="m 246.94,228.36 -52.75,25.4 c -6.1,2.94 -13.4,1.7 -18.19,-3.09 L 3.32,93.23 C -1.32,89 -1.32,81.68 3.33,77.46 l 14.1,-12.82 c 3.8,-3.46 9.53,-3.71 13.62,-0.61 L 239,221.77 c 6.98,5.29 17,0.32 17,-8.44 v 0.61 c 0,6.15 -3.52,11.76 -9.06,14.42 z"
         id="path2322" /></g><g
       id="g2328"><path
         class="st4"
         d="m 194.2,253.76 c -6.11,2.94 -13.4,1.7 -18.2,-3.1 5.9,5.9 16,1.72 16,-6.63 V 11.96 c 0,-8.35 -10.1,-12.53 -16,-6.63 4.79,-4.79 12.09,-6.03 18.2,-3.1 l 52.74,25.36 c 5.54,2.67 9.07,8.27 9.07,14.42 v 171.97 c 0,6.15 -3.52,11.75 -9.07,14.42 z"
         id="path2326" /></g><g
       class="st5"
       id="g2337"><linearGradient
         id="SVGID_1_"
         gradientUnits="userSpaceOnUse"
         x1="127.8439"
         y1="257.34"
         x2="127.8439"
         y2="2.6598001"
         gradientTransform="matrix(1,0,0,-1,0,258)"><stop
           offset="0"
           style="stop-color:#FFFFFF"
           id="stop2330" /><stop
           offset="1"
           style="stop-color:#FFFFFF;stop-opacity:0"
           id="stop2332" /></linearGradient><path
         class="st6"
         d="m 181.38,254.25 c 4.03,1.57 8.63,1.47 12.7,-0.49 l 52.71,-25.36 c 5.54,-2.66 9.06,-8.27 9.06,-14.42 V 42.02 c 0,-6.15 -3.52,-11.75 -9.06,-14.42 L 194.08,2.24 C 188.74,-0.33 182.49,0.3 177.8,3.71 177.13,4.2 176.49,4.74 175.89,5.34 L 74.99,97.39 31.04,64.02 C 26.95,60.91 21.23,61.17 17.43,64.63 L 3.33,77.45 C -1.32,81.68 -1.32,88.99 3.32,93.23 L 41.44,128 3.32,162.77 c -4.64,4.24 -4.64,11.55 0.01,15.78 l 14.1,12.82 c 3.8,3.46 9.52,3.71 13.61,0.61 l 43.95,-33.36 100.9,92.05 c 1.6,1.59 3.47,2.8 5.49,3.58 z m 10.5,-184.36 -76.56,58.11 76.56,58.12 z"
         id="path2335"
         style="fill:url(#SVGID_1_)" /></g></g></svg>
